
        <svg xmlns="http://www.w3.org/2000/svg" xmlns:xlink="http://www.w3.org/1999/xlink" version="1.1" width="3162.373968173028" height="908.0403301846313" viewBox="0 -32.47479363460552 3162.373968173028 908.0403301846313">
			
			<g transform="scale(8.11869840865138) translate(10, 10)">
				<defs id="SvgjsDefs4165"/><g id="SvgjsG4166" featureKey="symbolFeature-0" transform="matrix(0.10435811914263037,0,0,0.10435811914263037,-6.188822537331841,-22.182364016088837)" fill="#000"><path xmlns="http://www.w3.org/2000/svg" d="M779.3,464.9l-63.8,175l-59.3,212.3c-36.3,120.9-96.7,164-207.8,163.8c-95.6-0.1-155-39.5-211.3-128.4l-171.6-290  c-12.6-25.2-5.3-49.8,15.7-61.2c21-11.3,46.7-8.2,64.8,17.2c5.7,8,33.5,44.8,64.2,86.3c0,0,0.1,0.1,0.1,0.1  c13,18.7,30.8,42.2,52.8,71.8l65.9,95.6l55,86.3c5.1,9.2,15.5,13.7,24,8.5c8.2-5,10.8-12.9,5.2-24.1l-36.2-76.1  c-2.1-4.3,3.5-8.1,6.7-4.5l86.8,112.7c7.4,8.3,22.5,13.2,31.4,5.3c8.9-7.9,7.6-21.5,0.5-30.9l-73.2-103.8c-2.7-3.5,2.3-7.8,5.4-4.7  l102.1,107.1c7.4,8.3,22.2,11.9,31.1,4c8.9-7.9,7.6-21.8-0.1-30.7L459,737.8c-2.6-3,1.2-7.3,4.5-5l92.2,70.3c11.3,7.9,25.4,9.2,33,0  c8.5-10.2,1.5-24.6-8-32.3l-132.9-112c-21.2-16.6-13.5-34.9,12.8-34.2c33.5,1,71.1,1.5,77.5,1.7c15.1,0.6,23.9-8.3,25.8-19.7  c1.9-11.4-5.4-21.5-18.8-24.2l-162-20.5c-19.9-1.9-43-4.3-66.5-5.7l9.2-261.8c0.4-25.3,16.5-48.1,43.9-47.3  c24.6,0.7,42.7,21.2,44.1,49.6l3.9,220.8c0.3,8.3,12.2,9.2,13.8,1l49.9-308.5c4.7-23.8,27.7-39.5,51.8-35  c24.2,4.5,39.9,28.7,35.7,51.3l-39.3,280.4c-1.2,9.1,12,11.7,14.4,2.9l66.8-229.2c6.3-23.5,27.9-38.2,52-33.7  c24.2,4.5,38.9,31,34.7,53.5l-67.2,263.1c-1.7,9.6,11.6,14,15.9,5.2l66.2-130c11.2-23.3,29.3-29,47.8-22  C779.1,423.8,787.9,444.9,779.3,464.9z"/></g><g id="SvgjsG4167" featureKey="nameFeature-0" transform="matrix(2.304460032517711,0,0,2.304460032517711,102.00556005922392,-25.582367514300064)" fill="#000"><path d="M37.8 17.44 c0.68 0.28 -0.16 0.96 -0.44 0.84 l-0.04 0 c-4.28 -1.84 -16.52 -2.16 -26.2 -1.8 c-4.48 8.2 -10.64 19.6 -10.36 26.12 c0.04 0.28 0.12 0.56 0.28 0.64 c1.52 0.76 4.36 -5.04 5.4 -6.64 c0 0 0.36 -0.96 0.88 -0.52 c0.36 0.32 -0.12 0.6 -0.12 0.6 c-0.52 0.6 -4.2 7.52 -5.92 7.4 c-1.6 -0.12 -1.64 -1.48 -1.64 -1.48 c-0.24 -6.76 5.56 -17.56 10 -26 c-6.64 0.28 -11.92 0.92 -12.04 0.96 c0 0 -0.64 -0.28 -0.64 -0.72 c0 -0.6 0.76 -0.8 0.76 -0.8 c0.56 0 5.96 -0.36 12.64 -0.52 c1.04 -2 1.6 -2.88 1.72 -3.12 c0 0 0.52 -0.64 1.2 -0.36 c0.52 0.24 0.32 0.92 0.32 0.92 c0 0.04 -0.72 0.72 -1.72 2.52 c9.56 -0.2 21.48 0.04 25.92 1.96 z M19.092 36.36 c0 0 0.2 -0.2 0.48 -0.08 c0.32 0.16 0 0.52 0 0.52 c-1 1.24 -4 3.6 -5.6 3.6 l0 0 c-0.52 0 -0.8 -0.2 -0.96 -0.4 c-0.32 -0.4 -0.52 -1.16 0.44 -3.68 c-3 3.48 -3.96 3.16 -4.28 3.08 c-0.24 -0.08 -0.72 -0.32 -0.76 -1.16 l0 -0.04 c-0.12 -1.68 2.28 -6.52 3.08 -6.48 c0 0 0.6 0.2 0.6 0.48 c-0.04 0.52 -0.36 0.92 -0.6 0.88 c-0.72 -0.4 -2 3.76 -1.96 5.08 c0 0.04 0.04 0.08 0.04 0.12 c0.48 -0.12 1.88 -1.2 4.04 -3.96 c0.68 -0.84 1.16 -1.44 1.48 -1.8 c0.32 -0.4 0.64 -0.8 1.08 -0.44 c0.16 0.12 0.36 0.44 0.12 0.8 c-1.48 2.88 -2.56 5.76 -2.4 6.36 c0.2 0.6 1.24 0.28 2.6 -0.64 c1 -0.68 2.08 -1.6 2.6 -2.24 z M35.903999999999996 36.48 c0.24 0.28 -0.16 0.64 -0.16 0.64 c-2.16 2.08 -7.4 8.08 -8.64 7.36 c-0.56 -0.32 -0.12 -1.16 0.12 -1.64 c0.24 -0.52 0.6 -1.16 1 -1.88 c0.72 -1.24 1.44 -2.44 2 -3.72 c1.32 -2.64 1.32 -3.16 1.16 -3.2 c-1.24 -0.08 -3.92 2.2 -5.68 5.12 c0 0 -0.44 0.28 -0.8 0.04 c-0.32 -0.2 -0.16 -0.8 -0.16 -0.8 c0 -0.04 0.08 -0.12 0.2 -0.24 c0.44 -0.88 2.6 -4.88 2.56 -5 c-1.12 -0.32 -3.6 2.8 -4.52 4.32 s-1.32 2.16 -1.96 2.08 c-0.12 -0.04 -0.48 -0.16 -0.6 -0.68 c-0.4 -1.84 1.56 -5.48 1.8 -5.92 c0 0 0.36 -0.8 0.96 -0.4 c0.44 0.28 0.04 0.96 0.04 0.96 c-0.6 1.04 -1.36 2.8 -1.64 4.04 c0.16 -0.2 0.28 -0.44 0.44 -0.64 c1.36 -2.28 4 -5.68 6.04 -4.72 l0.08 0 l0.04 0.04 c0.64 0.56 -0.2 1.88 -0.64 3.12 c0.64 -0.6 3.92 -3.28 4.88 -1.76 c0.88 1.52 -1.12 4.52 -3.12 7.96 c-0.16 0.32 -0.36 0.68 -0.56 1 c2.2 -1.08 5.8 -5.24 6.56 -6.16 c0 0 0.36 -0.2 0.6 0.08 z M51.836 16.88 c0.48 0.16 0.36 0.84 0.36 0.84 c-2.04 4.44 -3.84 8.24 -5.32 12.28 c0.36 -0.04 0.8 -0.08 1.16 -0.08 l0.12 0 c0.36 0 0.88 0.04 1 0.36 l0.04 0.12 l-0.04 0.12 c-0.16 0.64 -2 0.92 -2.64 1.04 l-0.04 0.2 l-0.24 0 c-0.84 2.36 -1.56 4.84 -2.2 7.6 c0 -0.04 0 -0.04 -0.04 -0.04 c0 0 -0.16 0.92 -0.72 1 c-0.56 0.12 -1.04 -0.72 -1.04 -0.72 c-0.16 -0.68 1.08 -4.08 2.56 -7.8 c-0.92 0.12 -1.88 0.24 -2.84 0.32 c-0.24 0.04 -0.44 0.04 -0.68 0.04 c-0.64 0 -1.24 -0.2 -1.24 -0.72 c0 -0.16 0.08 -0.32 0.2 -0.56 c0.96 -1.84 1.88 -3.72 2.68 -5.6 l0.08 -0.12 c0.76 -1.88 1.48 -3.72 2.2 -5.6 c0.24 -0.64 0.48 -1.32 0.68 -1.96 c0.28 -0.68 0.56 -1.52 0.92 -2.16 l0.16 -0.2 c0.24 -0.32 0.56 -0.52 0.8 -0.52 s0.48 0.24 0.52 0.76 l0 0.08 c0 1.2 -1.36 3.48 -1.84 4.52 l-0.56 1.28 c-0.04 0.04 -0.04 0.08 -0.04 0.16 c-0.68 1.6 -1.36 3.24 -2.08 4.84 c-0.4 0.96 -0.84 1.92 -1.28 2.84 c-0.2 0.52 -0.44 1.04 -0.68 1.48 c0.76 -0.04 1.52 -0.16 2.28 -0.28 c0.4 -0.04 0.84 -0.12 1.28 -0.2 l0.12 -0.08 c0.24 -0.56 0.48 -1.16 0.72 -1.72 c1.84 -4.36 4.8 -11.12 4.84 -11.2 c0 0 0.36 -0.52 0.8 -0.32 z M69.968 34.6 c0.12 0.48 -0.44 0.44 -0.44 0.44 c-0.28 0.12 -1.12 0.36 -2.28 0.56 c0 0 -1.48 0.28 -2.84 0.28 c-0.6 -0.04 -1.24 1.32 -1.64 2.12 c-0.48 1 -1.04 1.68 -1.72 1.56 c-0.2 -0.04 -0.36 -0.16 -0.48 -0.32 c-0.28 -0.44 -0.16 -1.24 0.24 -3.16 c0.04 -0.28 0.6 -1.92 0.64 -2.24 c-0.12 0.24 -0.72 1.8 -0.84 2.04 c-1.28 2.6 -2.12 4.2 -3.08 4.36 l-0.16 0 c-0.24 0 -0.48 -0.08 -0.68 -0.28 c-1.4 -1.32 0.56 -5.44 1.16 -6.68 c0 0 0.36 -0.44 0.92 -0.24 c0.52 0.2 0.2 0.68 0.2 0.68 c-1.04 2 -1.88 4.6 -1.56 5.32 c0.56 -0.44 1.64 -2.6 2.16 -3.68 c0.96 -1.92 1.32 -2.44 1.84 -2.6 c0.16 -0.04 0.36 -0.04 0.52 0.08 c0.72 0.4 0.16 2.72 -0.2 4.64 c0.92 -0.92 1.64 -2.72 2.8 -2.64 c2.44 0.36 3.84 -0.04 4.36 -0.24 c0 0 0.84 -0.64 1.08 0 z M80.74 33.24 c0.04 0.48 -0.56 0.36 -0.56 0.36 c-0.28 0.04 -1.24 0.08 -2.52 0.04 c-0.52 0 -1 0 -1.16 0.04 c0.04 0.96 -0.32 2.08 -0.88 3.12 c-0.92 1.6 -2.4 3.04 -3.84 3.04 c-0.36 0 -0.72 -0.08 -1.08 -0.28 c-0.56 -0.32 -0.88 -0.8 -1 -1.4 c-0.4 -2.4 3.92 -7.12 4.32 -7.56 c0 0 0.48 -0.48 0.8 -0.28 c0.52 0.36 0.08 0.88 0.08 0.88 c-1.44 1.56 -4.28 5.4 -4.08 6.76 c0.04 0.28 0.16 0.72 0.4 0.84 c1.04 0.56 2.52 -1.04 3.36 -2.56 c0.52 -0.88 0.8 -1.88 0.76 -2.6 c-0.52 -0.12 -0.84 -0.32 -0.96 -0.64 c-0.2 -0.44 0.08 -0.92 0.4 -1.2 l0.32 -0.24 l0.36 0.2 c0.32 0.2 0.56 0.44 0.76 0.76 c0.2 0.24 0.48 0.36 0.76 0.44 c1.08 0.12 2.08 0.12 2.72 0.04 c0 0 0.96 -0.44 1.04 0.24 z M89.31199999999998 34.36 c0.32 0.32 -0.16 0.6 -0.16 0.6 c-0.36 0.48 -2.92 3.04 -5.32 4.44 c-1.24 0.64 -1.88 0.32 -1.96 0.12 c-0.32 -0.56 0.04 -1.52 0.84 -3.6 c0.2 -0.52 0.48 -1.2 0.6 -1.64 c-0.32 -0.08 -0.88 -0.28 -1.16 -0.44 c-1.72 3.36 -4.48 8.28 -4.64 8.56 c0 0 0.08 0.88 -0.48 0.56 c-0.56 -0.28 0 -0.96 0 -0.96 c1.04 -1.84 3.04 -5.96 4.4 -8.68 c-0.8 -0.6 -1.16 -1.32 -1.08 -2.2 c0.08 -0.8 0.6 -1.52 1.32 -1.8 c0.6 -0.24 1.24 -0.16 1.64 0.2 c0.24 0.24 0.6 0.72 0.36 1.64 c-0.08 0.36 -0.36 0.96 -0.72 1.72 c0.28 0.16 1.44 0.64 1.52 0.8 c0.2 0.44 -0.04 1.04 -0.68 2.68 c-0.24 0.6 -0.68 2 -0.84 2.6 c1.24 -0.12 4.96 -3.48 5.44 -4.08 c0 0 0.36 -0.96 0.92 -0.52 z M82.55199999999999 30.84 c0.08 -0.24 0.04 -0.4 0 -0.44 s-0.12 -0.04 -0.2 -0.04 s-0.16 0 -0.24 0.04 c-0.12 0.04 -0.56 0.24 -0.64 0.84 c0 0.28 0.08 0.64 0.48 1.04 c0.32 -0.64 0.52 -1.16 0.6 -1.44 z M100.444 16.48 c-4.48 8.2 -10.64 19.6 -10.36 26.12 c0.04 0.28 0.12 0.56 0.28 0.64 c1.52 0.76 4.36 -5.04 5.4 -6.64 c0 0 0.36 -0.96 0.88 -0.52 c0.36 0.32 -0.12 0.6 -0.12 0.6 c-0.52 0.6 -4.2 7.52 -5.92 7.4 c-1.6 -0.12 -1.64 -1.48 -1.64 -1.48 c-0.16 -7.96 7.48 -21.44 12.44 -30.2 c0 0 0.52 -0.64 1.2 -0.36 c0.52 0.24 0.32 0.92 0.32 0.92 c0 0.04 -0.72 0.72 -2.48 3.52 z M116.056 12.96 c-0.12 0.32 -12.88 27.72 -14.92 34.28 c-0.12 0.36 0.52 0.6 0.24 1.04 c0 0 -0.36 0.24 -0.92 0.16 c-0.52 -0.12 -0.44 -0.8 -0.44 -0.8 c0.4 -2.08 3.72 -9.96 7.16 -17.76 c-0.88 1.56 -1.68 2.92 -2.28 3.88 c0.08 0.12 0.12 0.32 0.04 0.52 c-0.16 0.36 -0.36 0.32 -0.52 0.24 c-0.08 0.08 -0.16 0.2 -0.24 0.28 l-0.28 0.4 c-1.4 1.8 -2.64 3.36 -3.96 3.48 c-0.04 0.04 -0.12 0.04 -0.2 0.04 c-0.4 0 -0.8 -0.16 -1.16 -0.44 c-0.44 -0.4 -0.6 -1.04 -0.44 -1.88 c0.32 -1.52 1.72 -3.48 3.44 -3.96 c0.64 -0.16 1.56 -0.2 2.48 0.48 c2.56 -4.08 8.8 -15.8 9.16 -16.48 c1 -2.2 1.68 -3.68 1.8 -3.96 c0 0 0.36 -0.36 0.76 -0.16 c0.44 0.2 0.28 0.64 0.28 0.64 z M103.296 34.08 c0.04 -0.04 0.2 -0.32 0.24 -0.36 c-0.32 -0.28 -1.2 -0.52 -1.72 -0.4 c-1.2 0.24 -2.28 2.16 -2.56 3.32 c-0.08 0.4 -0.04 0.68 0.04 0.72 c0.24 0.2 0.4 0.2 0.52 0.2 c0.84 -0.12 2.08 -1.68 3.16 -3.08 z"/></g>
			</g>
		</svg>
	